# xmcd CD database file
#
# Track frame offsets:
#	150
#	23060
#	39917
#	60050
#	79912
#	109765
#	123122
#	138130
#	166162
#	186662
#
# Disc length: 2792 seconds
#
# Revision: 2
# Processed by: cddbd v1.5.2PL0 Copyright (c) Steve Scherf et al.
# Submitted via: CDex 1.70beta3
#
DISCID=720ae60a
DTITLE=zabadak - wonderful life
DYEAR=2004
DGENRE=Pop
TTITLE0=今日の夢のこと
TTITLE1=The Dawn
TTITLE2=彗星はいつも一人
TTITLE3=ホームページのつくりかた
TTITLE4=Regret
TTITLE5=天気予報
TTITLE6=クリオン広場
TTITLE7=Wonderful Life
TTITLE8=生まれては別れにむかうわたしたちのために
TTITLE9=夏日記
EXTD=YEAR: 2004
EXTT0=
EXTT1=
EXTT2=
EXTT3=
EXTT4=
EXTT5=
EXTT6=
EXTT7=
EXTT8=
EXTT9=
PLAYORDER=
